REM DIRINDEX 1\2,1\3,1\4,1\5
REM DIRNAME folder01,folder02,folder03,folder04,folder05
TITLE ""
FILE "1800_079.mp3" MP3
  TRACK 01 AUDIO
    TITLE "2:cjc044_2049"
    INDEX 01 00:00:00
  TRACK 02 AUDIO
    TITLE "0:"
    INDEX 01 00:01:11
  TRACK 03 AUDIO
    TITLE "3:cjc044_2050"
    INDEX 01 00:02:02
  TRACK 04 AUDIO
    TITLE "0:"
    INDEX 01 00:03:00
  TRACK 05 AUDIO
    TITLE "4:cjc044_2051"
    INDEX 01 00:03:59
  TRACK 06 AUDIO
    TITLE "0:"
    INDEX 01 00:05:03
  TRACK 07 AUDIO
    TITLE "5:cjc044_2052"
    INDEX 01 00:05:54
  TRACK 08 AUDIO
    TITLE "0:"
    INDEX 01 00:08:30
  TRACK 09 AUDIO
    TITLE "2:cjc044_2053"
    INDEX 01 00:10:14
  TRACK 10 AUDIO
    TITLE "0:"
    INDEX 01 00:11:33
  TRACK 11 AUDIO
    TITLE "3:cjc044_2054"
    INDEX 01 00:12:14
  TRACK 12 AUDIO
    TITLE "0:"
    INDEX 01 00:13:28
  TRACK 13 AUDIO
    TITLE "4:cjc044_2055"
    INDEX 01 00:14:13
  TRACK 14 AUDIO
    TITLE "0:"
    INDEX 01 00:15:34
  TRACK 15 AUDIO
    TITLE "5:cjc044_2056"
    INDEX 01 00:16:06
  TRACK 16 AUDIO
    TITLE "0:"
    INDEX 01 00:18:58
  TRACK 17 AUDIO
    TITLE "2:cjc044_2057"
    INDEX 01 00:20:43
  TRACK 18 AUDIO
    TITLE "0:"
    INDEX 01 00:21:58
  TRACK 19 AUDIO
    TITLE "3:cjc044_2058"
    INDEX 01 00:22:42
  TRACK 20 AUDIO
    TITLE "0:"
    INDEX 01 00:23:36
  TRACK 21 AUDIO
    TITLE "4:cjc044_2059"
    INDEX 01 00:24:22
  TRACK 22 AUDIO
    TITLE "0:"
    INDEX 01 00:25:39
  TRACK 23 AUDIO
    TITLE "5:cjc044_2060"
    INDEX 01 00:26:13
  TRACK 24 AUDIO
    TITLE "0:"
    INDEX 01 00:29:05
  TRACK 25 AUDIO
    TITLE "2:cjc044_2061"
    INDEX 01 00:30:67
  TRACK 26 AUDIO
    TITLE "0:"
    INDEX 01 00:32:07
  TRACK 27 AUDIO
    TITLE "3:cjc044_2062"
    INDEX 01 00:32:68
  TRACK 28 AUDIO
    TITLE "0:"
    INDEX 01 00:33:62
  TRACK 29 AUDIO
    TITLE "4:cjc044_2063"
    INDEX 01 00:34:47
  TRACK 30 AUDIO
    TITLE "0:"
    INDEX 01 00:35:57
  TRACK 31 AUDIO
    TITLE "5:cjc044_2064"
    INDEX 01 00:36:35
  TRACK 32 AUDIO
    TITLE "0:"
    INDEX 01 00:39:43
  TRACK 33 AUDIO
    TITLE "2:cjc044_2065"
    INDEX 01 00:41:28
  TRACK 34 AUDIO
    TITLE "0:"
    INDEX 01 00:42:41
  TRACK 35 AUDIO
    TITLE "3:cjc044_2066"
    INDEX 01 00:43:27
  TRACK 36 AUDIO
    TITLE "0:"
    INDEX 01 00:44:38
  TRACK 37 AUDIO
    TITLE "4:cjc044_2067"
    INDEX 01 00:45:20
  TRACK 38 AUDIO
    TITLE "0:"
    INDEX 01 00:46:33
  TRACK 39 AUDIO
    TITLE "5:cjc044_2068"
    INDEX 01 00:47:19
  TRACK 40 AUDIO
    TITLE "0:"
    INDEX 01 00:50:37
  TRACK 41 AUDIO
    TITLE "2:cjc044_2069"
    INDEX 01 00:52:22
  TRACK 42 AUDIO
    TITLE "0:"
    INDEX 01 00:53:33
  TRACK 43 AUDIO
    TITLE "3:cjc044_2070"
    INDEX 01 00:54:19
  TRACK 44 AUDIO
    TITLE "0:"
    INDEX 01 00:56:41
  TRACK 45 AUDIO
    TITLE "4:cjc044_2071"
    INDEX 01 00:57:29
  TRACK 46 AUDIO
    TITLE "0:"
    INDEX 01 00:58:40
  TRACK 47 AUDIO
    TITLE "5:cjc044_2072"
    INDEX 01 00:59:10
  TRACK 48 AUDIO
    TITLE "0:"
    INDEX 01 01:02:10
  TRACK 49 AUDIO
    TITLE "2:cjc044_2073"
    INDEX 01 01:04:00
  TRACK 50 AUDIO
    TITLE "0:"
    INDEX 01 01:05:09
  TRACK 51 AUDIO
    TITLE "3:cjc044_2074"
    INDEX 01 01:05:69
  TRACK 52 AUDIO
    TITLE "0:"
    INDEX 01 01:06:61
  TRACK 53 AUDIO
    TITLE "4:cjc044_2075"
    INDEX 01 01:07:47
  TRACK 54 AUDIO
    TITLE "0:"
    INDEX 01 01:08:56
  TRACK 55 AUDIO
    TITLE "5:cjc044_2076"
    INDEX 01 01:09:42
  TRACK 56 AUDIO
    TITLE "0:"
    INDEX 01 01:12:66
  TRACK 57 AUDIO
    TITLE "2:cjc044_2077"
    INDEX 01 01:14:53
  TRACK 58 AUDIO
    TITLE "0:"
    INDEX 01 01:15:60
  TRACK 59 AUDIO
    TITLE "3:cjc044_2078"
    INDEX 01 01:16:46
  TRACK 60 AUDIO
    TITLE "0:"
    INDEX 01 01:17:33
  TRACK 61 AUDIO
    TITLE "4:cjc044_2079"
    INDEX 01 01:18:21
  TRACK 62 AUDIO
    TITLE "0:"
    INDEX 01 01:19:28
  TRACK 63 AUDIO
    TITLE "5:cjc044_2080"
    INDEX 01 01:20:02
  TRACK 64 AUDIO
    TITLE "0:"
    INDEX 01 01:23:56
